<svg width="38" height="43" viewBox="0 0 38 43" fill="none" xmlns="http://www.w3.org/2000/svg">
<g clip-path="url(#clip0)">
<path d="M19.0084 11.8417C13.6138 11.8417 9.26245 16.1501 9.26245 21.4915C9.26245 26.8329 13.6138 31.1413 19.0084 31.1413C24.4031 31.1413 28.7544 26.8329 28.7544 21.4915C28.7544 16.1501 24.4031 11.8417 19.0084 11.8417ZM19.0084 27.7652C15.5223 27.7652 12.6723 24.9517 12.6723 21.4915C12.6723 18.0314 15.5138 15.2179 19.0084 15.2179C22.5031 15.2179 25.3446 18.0314 25.3446 21.4915C25.3446 24.9517 22.4946 27.7652 19.0084 27.7652ZM31.4263 11.447C31.4263 12.6984 30.4084 13.6978 29.1531 13.6978C27.8892 13.6978 26.8799 12.69 26.8799 11.447C26.8799 10.204 27.8977 9.19622 29.1531 9.19622C30.4084 9.19622 31.4263 10.204 31.4263 11.447ZM37.8812 13.7314C37.737 10.7163 37.0415 8.04563 34.8107 5.84524C32.5883 3.64485 29.891 2.95618 26.8459 2.805C23.7075 2.62864 14.3008 2.62864 11.1625 2.805C8.12584 2.94778 5.42852 3.63645 3.19772 5.83684C0.966917 8.03723 0.279864 10.7079 0.127185 13.723C-0.0509399 16.8304 -0.0509399 26.1443 0.127185 29.2517C0.271381 32.2667 0.966917 34.9374 3.19772 37.1378C5.42852 39.3382 8.11736 40.0269 11.1625 40.1781C14.3008 40.3544 23.7075 40.3544 26.8459 40.1781C29.891 40.0353 32.5883 39.3466 34.8107 37.1378C37.033 34.9374 37.7285 32.2667 37.8812 29.2517C38.0593 26.1443 38.0593 16.8388 37.8812 13.7314ZM33.8267 32.5859C33.1651 34.232 31.8843 35.5001 30.2133 36.1636C27.7111 37.1462 21.7736 36.9195 19.0084 36.9195C16.2433 36.9195 10.2973 37.1378 7.80352 36.1636C6.14102 35.5085 4.86022 34.2404 4.19013 32.5859C3.19772 30.1083 3.42674 24.2294 3.42674 21.4915C3.42674 18.7536 3.2062 12.8663 4.19013 10.3972C4.85174 8.7511 6.13254 7.48293 7.80352 6.81946C10.3058 5.83684 16.2433 6.0636 19.0084 6.0636C21.7736 6.0636 27.7196 5.84524 30.2133 6.81946C31.8758 7.47454 33.1566 8.7427 33.8267 10.3972C34.8191 12.8747 34.5901 18.7536 34.5901 21.4915C34.5901 24.2294 34.8191 30.1167 33.8267 32.5859Z" fill="black"/>
</g>
<defs>
<clipPath id="clip0">
<rect width="38" height="43" fill="white"/>
</clipPath>
</defs>
</svg>
