<svg width="1192" height="1202" viewBox="0 0 1192 1202" fill="none" xmlns="http://www.w3.org/2000/svg">
<path d="M-432.5 -95.8001C-432.8 -95.1001 -432.9 195.1 -432.8 549L-432.5 1192.5L-432.2 548.2L-432 -96.0001H553.5H1539L1539.3 548L1539.5 1192V547.8V-96.5001L553.7 -96.8001C-234.4 -97.0001 -432.2 -96.8001 -432.5 -95.8001Z" fill="#511972"/>
<path d="M605.5 0.599942C582.6 3.89994 569.4 7.69994 552.5 16.0999C511.6 36.1999 480.9 76.5 472.3 121.3L470.6 130.2L467.5 129.6C465.9 129.3 461.4 128.4 457.5 127.6C408 116.9 354.6 130.5 314.3 164.1C286.4 187.5 265.5 222.4 258 258.2C252 286.9 253.6 316.8 262.5 344.7L266.1 356H276.6C286.3 356 287.2 355.9 286.5 354.2C282.8 345.7 277.7 328.4 276 318.7C266 260.2 291.3 201.5 340.5 168.6C390.6 135.1 456.4 135.2 506.6 168.7C541 191.6 564.1 227.4 571.2 268.5C572.9 278.7 573.1 283.2 572.7 298C572 319.8 569.1 333.4 560.5 354.2C559.8 355.9 560.7 356 570.3 356H580.9L584.4 345.2C594.7 313.2 595.4 281.4 586.5 248.3C583.9 238.4 583.6 239.1 592 235.9C648.4 214.3 712.9 234.5 747.8 284.8C760.5 303.1 768.8 326 770.6 347.6L771.3 356H780.1H789L788.4 349.7C786.4 328.1 780.7 307.8 771.5 290.2C764.3 276.4 756.4 265.7 745.1 254.2C738.7 247.7 736 244.2 736.6 243.4C752.9 221.1 761.4 202.5 766.7 178C769.4 165.1 769.2 133.1 766.2 119.8C752.8 59.5 707.8 14.8999 648.1 2.89994C638.9 0.999945 612.4 -0.400058 605.5 0.599942ZM648.6 20.7999C674.6 27.3999 694.6 38.4999 712.6 56.4999C738.4 82.1999 751.4 113.8 751.3 150.5C751.3 172 747.6 188.1 738.3 207.8C735 214.8 723.9 232.3 722 233.5C721.5 233.8 717.9 232.3 714 230C704.6 224.5 696 220.7 684.8 217.2C666.8 211.4 660.3 210.5 638.5 210.5C620.2 210.6 617.5 210.8 606.5 213.4C599.9 214.9 590.7 217.7 586 219.5L577.5 222.7L572.5 213.3C555.9 182.2 530.1 157.4 497.8 141.4C486.7 135.9 487 136.7 489.6 124.2C497.7 84.1999 524.1 49.7999 560.7 31.3999C570.4 26.4999 585.2 21.5999 596.5 19.4999C608.3 17.3999 637.7 18.0999 648.6 20.7999Z" fill="#511972"/>
<path d="M710.2 77.2L707.8 80.1001L715.7 87.8C728 100.1 733.9 111.9 736.1 128.8C737.1 136.2 737 139.1 735.6 147.4C734.7 152.9 734.1 157.5 734.4 157.7C734.6 157.9 736.3 158.3 738.2 158.7L741.7 159.2L743.1 153.9C744.9 147.1 744.9 125.1 743.1 119C738 101.3 727.2 84.6 715.3 76.2L712.5 74.3L710.2 77.2Z" fill="#511972"/>
<path d="M542.5 276.4C542.3 277 541.6 282 541 287.5C538.3 310.3 530 332.2 516.8 351.7L513.9 356H522.2H530.5L533.1 351.7C541 339.1 548.1 321.5 551.8 305.5C553.8 296.6 556.4 278.1 555.7 277.4C555.5 277.2 552.5 276.6 549.1 276.2C544.7 275.6 542.7 275.6 542.5 276.4Z" fill="#511972"/>
<path d="M739.4 303.3L736.8 305.6L741.6 312C750.2 323.5 755.9 339 756 351.2V356H760H764V349.7C764 341.6 760.9 329.5 756.6 320.5C753.2 313.4 744.6 301 743 301C742.5 301 740.9 302 739.4 303.3Z" fill="#511972"/>
<path d="M157.5 378.5C139.2 382.5 125.3 392 115 407.6C107.8 418.6 104.8 428.8 104.3 444.5C103.7 460.9 105.3 469.1 111.6 482C117.7 494.3 128.6 505.6 140 511.3C172.1 527.2 212.2 517.3 230.3 488.9C246.1 464.2 245.7 430.4 229.3 405.8C217.3 387.7 195.6 376.8 171.7 377.1C167.2 377.1 160.8 377.8 157.5 378.5ZM185.8 417.6C195.5 423.7 200.5 435.2 199.8 450.5C199.5 458.4 199 460.6 196.2 466.3C185.9 487.1 159.5 487.1 149.1 466.3C145.7 459.5 144.4 449.3 145.8 441C147.9 428.7 153.6 420.4 163 416C169.5 413 179.3 413.7 185.8 417.6Z" fill="#511972"/>
<path d="M0 448V516H48.5H97V498.5V481H69.5H42V430.5V380H21H0V448Z" fill="#511972"/>
<path d="M257 447.9V516H290.4C327.4 516 336.2 515.1 348.1 510.1C366.6 502.3 378.8 488.1 384.2 468.1C387.1 457.4 387.1 438.6 384.2 427.7C378.1 405.1 363 389.8 340 382.9C332.9 380.8 330.4 380.6 294.8 380.2L257 379.9V447.9ZM328.5 418.5C331.3 419.8 334.2 421.5 335 422.2C347.1 432.4 348.5 458.3 337.7 470.6C331 478.2 327.7 479.4 311.8 479.8L298 480.2V448.1V416H310.8C322.2 416 324 416.3 328.5 418.5Z" fill="#511972"/>
<path d="M399 397.5V415H426C440.9 415 453 415.3 453 415.7C453 416.2 440.6 432.4 425.5 451.9L398 487.2V501.6V516H454H510V498.5V481H481C465.1 481 452 480.6 452 480.2C452 479.7 464.4 463.4 479.5 443.9L507 408.5V394.2V380H453H399V397.5Z" fill="#511972"/>
<path d="M522 448V516H542.5H563V448V380H542.5H522V448Z" fill="#511972"/>
<path d="M623.1 382.2C622.6 383.5 610.8 413.3 597 448.5C583.1 483.7 571.5 513.3 571.2 514.3C570.8 515.9 572.1 516 591.5 515.8L612.3 515.5L616.4 504L620.5 492.5H644H667.4L671.4 504.2L675.5 516H696.8C708.6 516 718 515.6 717.8 515.1C717.7 514.6 705.6 484 691 447.1L664.5 380H644.2C624.1 380 623.9 380 623.1 382.2ZM650.2 442.5L655.8 459H643.8C637.2 459 632 458.6 632.2 458.2C632.4 457.8 634.9 450.3 637.9 441.7C640.9 433.1 643.6 426 643.9 426C644.2 426 647 433.4 650.2 442.5Z" fill="#511972"/>
<path d="M725 448V516H745.5H766V499V482H771.9H777.7L788 499L798.3 516H820.2H842.1L840.9 513.8C840.2 512.6 834.6 503.3 828.3 493.2C822.1 483.1 817 474.4 817 473.9C817 473.4 817.4 473 817.9 473C818.5 473 821.5 470.5 824.8 467.5C835 458.1 839.5 446.6 839.4 430.5C839.3 421.2 837.4 412.7 833.9 405.9C830.4 398.9 821.5 390.5 813.8 386.7C801.6 380.7 795.5 380 758 380H725V448ZM791 417.5C800.5 423.1 800.4 439.1 790.8 445C788 446.7 785.7 447 776.8 447H766V430.9V414.8L776.8 415.1C785.3 415.4 788.2 415.9 791 417.5Z" fill="#511972"/>
<path d="M856 448V516H876H896L896.2 485.5L896.5 455.1L919.5 485.5L942.5 516H959.2H976V448V380H956H936L935.8 410.6L935.5 441.3L912.5 410.6L889.5 380H872.8H856V448Z" fill="#511972"/>
<path d="M996 448V516H1017H1038V448V380H1017H996V448Z" fill="#511972"/>
<path d="M1097.3 381.7C1096.9 382.7 1085.2 412.5 1071.2 448C1057.2 483.5 1045.5 513.3 1045.3 514.3C1044.8 515.9 1046.1 516 1065.6 515.8L1086.5 515.5L1090.5 504L1094.5 492.5H1118H1141.5L1145.5 504.2L1149.5 516H1170.8C1187.5 516 1192.1 515.7 1191.7 514.7C1191.5 514.1 1179.4 483.5 1164.9 446.7L1138.6 380H1118.3C1099.8 380 1097.9 380.2 1097.3 381.7ZM1124.2 442.5L1129.9 459H1118H1106.1L1111.8 442.5C1114.9 433.4 1117.7 426 1118 426C1118.3 426 1121.1 433.4 1124.2 442.5Z" fill="#511972"/>
<path d="M440.9 524.5C440.6 524.7 437.8 525.6 434.6 526.4C429.6 527.7 424.1 527.8 393.8 526.9C370.2 526.3 355.7 526.3 348.9 527C317.5 530.2 296.5 542.6 290.4 561.8C287.9 569.9 288.8 583.8 292.4 590.8C303.4 612.3 330.6 617 360.7 602.6C371.3 597.4 374.1 594.4 371.9 590.3C369.4 585.6 366.9 585.6 356.8 590.5C345.1 596.1 332.5 599.4 325.4 598.7C314.2 597.5 304.8 590.8 302.2 582.1C296.4 563 312.4 546.7 337.5 545.8C347.5 545.5 418.4 549.2 419.5 550.1C420 550.7 419.9 551 419.2 551C418.5 551 416 551.9 413.5 553.1C406.4 556.4 403.5 564 395 601.1L390.7 619.7L378.7 620.4C372.1 620.7 363.7 621 360 621C353.7 621 353.2 621.2 352.6 623.4C352.3 624.7 351.7 626.5 351.4 627.4C350.4 630 357.3 631.9 372.7 633.2L387.1 634.4L386.4 637.4C381.6 659.9 371.8 678.6 361.6 684.9C354.3 689.4 342.4 689.4 338.8 684.9C336.6 682.3 336.5 677.9 338.4 674.1C339.2 672.6 343.8 667.6 348.7 663C359.7 652.6 360.6 651.3 357.8 648.2C354.5 644.8 351.8 645.5 343.8 651.8C334 659.6 324.6 670 321.3 676.9C317.4 684.7 317.3 694.9 321 700.3C331.3 715.4 355.9 709.2 379.5 685.5C391.2 673.8 398.3 662.6 405 645L408.6 635.5L414.7 634.9C421.4 634.3 429.2 630.4 431.1 626.8C435.7 618.2 433.8 616 422.5 617.1C418.1 617.5 414.4 617.7 414.2 617.5C413.9 617.3 417.5 603.5 422 586.9C429.7 558.7 430.5 554.2 428.6 549.9C428.1 548.7 428.6 548.1 430.5 547.6C433.7 546.8 446.8 533.7 447.6 530.5C448.4 527.3 446.4 524 443.6 524C442.4 524 441.1 524.2 440.9 524.5Z" fill="#511972"/>
<path d="M655.5 527.4C643.7 532.5 622.7 571.6 612 608.6C610.2 614.6 608.3 619.8 607.6 620.2C607 620.6 604.4 621 601.8 621C598.2 621 596.8 621.5 595.7 623.1C592.6 627.4 596.3 633 602.1 633C605.3 633 605.8 633.3 605.3 634.7C604.4 637.2 583.2 665.5 577.5 671.8C572.6 677.2 568.4 680 566.3 679.3C565.6 679 566.3 676.5 568.5 671.7C578.9 649.1 574.1 625.9 557 616.6C537 605.7 506.1 621.1 491.8 649C485.6 661.2 464.7 686.1 456.7 691C446.5 697.3 447.1 692.2 462.7 644.2C467.8 628.4 470 620.1 469.6 618.4C468.7 614.8 465.4 614 458.4 615.5C450.5 617.2 449.7 617.6 447.8 620.8C445.6 624.7 429.2 677 428.2 683.6C425.7 699.3 435.2 709.6 449.7 706.9C458 705.3 464.9 701 475.7 690.6C484.6 682 486 681.1 486 683.2C486 687.3 491.8 697.7 496.2 701.5C506.4 710.1 522.5 711.4 538 704.8C539.9 704 544.2 701.3 547.4 698.8C553.2 694.4 553.5 694.3 556.7 695.6C561.4 697.6 565 697.3 570.7 694.5C575.9 691.9 588.3 679.8 595 670.8C596.9 668.2 598.8 666 599.1 666C599.5 666 599.5 667.9 599.3 670.3C598.6 676.6 600.7 688.8 603.6 694.7C608.3 704.5 618.4 710.2 628.3 708.6C637.9 707 653.5 695.1 666.1 679.4C669 675.9 671.5 673.1 671.6 673.3C671.8 673.5 670.2 679.9 668 687.6C665.9 695.4 664.4 702.6 664.7 703.8C665.6 707.4 670.5 708.3 678.3 706.1C682 705.1 685.3 704.1 685.5 703.8C685.7 703.6 689 697.4 692.7 690C704.8 666.2 721.8 642.6 731.6 636.1C742.3 629 750.1 635.1 742.9 644.9C740 648.9 734.4 652.7 722.7 659C711.5 665 709.6 667.1 710.6 672.4C711.3 676.3 718.5 691.2 722.7 697.2C726.6 703 734 707.2 740 707.2C748.1 707.2 754.9 703.2 766.7 691.4L777 681.2L778.1 685.3C779.7 691.4 783.4 697.3 788.4 701.7C801.1 712.8 824.3 711.1 840.2 697.9C844.8 694.1 844.9 694 848.4 695.5C850.3 696.3 853.2 697 854.7 697C861.1 697 872.5 688.6 882 676.7C884.4 673.6 886.6 671.3 886.8 671.5C887 671.7 886.7 674.2 886 677C884 685.3 884.5 694.3 887.2 699.2C890.5 705.2 893.9 707.3 900.9 707.8C905.7 708.1 907.9 707.8 912.2 705.8C918.9 702.7 928.1 694.2 935.6 684.2C938.8 680 941.7 676.1 942.1 675.6C942.5 675.2 942.6 678.3 942.3 682.6C941.7 691.9 943 697.6 946.7 702.1C949.6 705.5 956.1 708.9 959.7 709C968.8 709.1 980 703.1 993.2 691L999.9 684.9L1001.4 687.3C1003.8 690.9 1010.2 694 1015.2 694C1026.6 694 1039.6 682 1056.9 655.6C1063.3 645.7 1064.7 641.4 1063.2 636.1C1060.8 628.4 1060.2 628.8 1048.7 645.9C1028.8 675.3 1017.9 685.3 1011.6 680.1C1008.4 677.4 1008.8 674.2 1013.4 666.2C1019.4 655.9 1022.7 646.8 1023.8 637.8C1025.4 625.2 1022.4 615 1017.1 615C1014.2 615 1004.6 626.1 1000.7 633.9C996.1 643.1 994.7 650.2 995.2 661.8L995.6 671.3L988.1 679.3C977 691.1 968.9 695.5 965.2 691.8C963.6 690.2 963.7 681.6 965.5 673.3C966.3 669.6 969.9 656.4 973.5 644.1C977.1 631.7 980 620.6 980 619.4C980 615.7 977.6 614.7 970.8 615.4C960.4 616.5 959.7 617.2 949 638.6C935.4 665.8 919.7 688.3 912.2 691.1C904.7 694 905.4 685.6 915.8 648C921 629.4 923.4 618.8 923 617.5C922.3 615.7 921.4 615.5 915.2 615.7C911.4 615.8 906.6 616.5 904.7 617.3C901.5 618.7 901.1 619.3 899 627.4C896.9 635.2 895.8 637.2 887.7 648.3C870.9 671.1 861.1 681.4 858.1 679.6C857.6 679.3 858.8 675.5 860.6 671.1C873.1 642.4 861.9 615.3 836.7 613.3C827 612.5 817.6 615.4 805.1 623.1C801.9 625.1 792.1 635.3 788.7 640.3C787.2 642.6 784.4 647.4 782.5 651C780.7 654.6 776.2 661.4 772.5 666C760.3 681.5 751.5 689.2 746.5 689.2C742.9 689.2 738.7 684.9 735.7 678.2C731.3 668.1 731.2 668.4 737.2 665.4C751.1 658.4 762.5 648.7 766.6 640.3C769.1 634.9 768.9 627.2 766 622.5C763.3 618.2 755.5 614 749.9 614C737.5 614 719 627.3 705.7 645.7C704 648.1 702.5 649.8 702.3 649.6C702.1 649.4 702.7 646.2 703.7 642.6C705 637.4 706.6 634.6 710.3 630.2C723.1 615.2 735 597.7 740.5 585.5C750.4 563.9 752.4 541.3 745.5 530.9C741.6 524.9 738.9 525.4 729.8 533.9C712 550.5 699.7 575.8 685.7 624.1C682.6 634.8 681.7 636.6 674 647.6C662.4 664 655.9 672.3 647.6 680.8C637.2 691.5 630.9 694.2 625.9 690.1C623.6 688.2 623.5 687.8 623.5 672.6V657.1L627 652.3C628.9 649.7 633.3 643.3 636.7 638.1C640.2 632.9 643.2 628.5 643.3 628.3C643.5 628.2 647.5 626.9 652.2 625.6C667.8 621 679 615 679 611C679 605.4 672.1 604.6 660 608.9C651.1 612 651 611.9 654.5 605C656.8 600.5 661.8 583.6 663.6 574.5C664.8 568.6 665.4 560.5 665.4 551C665.5 537.4 665.3 536.2 663 531.6C661.6 528.9 660 526.5 659.5 526.4C658.9 526.2 657.1 526.7 655.5 527.4ZM645 584.5C644 592.4 641 602.8 637.3 611.2C635.5 615.4 634.2 616.9 632.4 617.3C631.1 617.5 630 617.4 630 617.1C630 616.8 631.4 610.6 633 603.5C636 590.4 638.3 582.5 642.3 571.5L644.5 565.5L645.2 571.5C645.5 574.8 645.4 580.6 645 584.5ZM549.3 628.8C550.8 630.2 552.4 632.9 553 634.9C553.8 637.9 553.5 638.9 550.5 643.9C544.8 653.1 542.9 660.1 543.1 670.8L543.3 680.1L539.3 684.8C532.6 692.8 527.6 696 522.1 696C518.2 696 516.8 695.5 514.6 693.3C511.1 689.8 510.5 687.2 510.6 676.5C510.8 661.9 517.4 645.5 527.7 634C535.8 624.9 543.2 623.2 549.3 628.8ZM837.3 626.3C841.2 628 842.8 629.9 844.5 634.7C845.7 638.1 845.6 638.6 842.5 643.4C836.7 652.6 834.7 659.3 834.5 670.7L834.4 680.8L830.5 685.5C823.3 694.3 814 698.2 807.8 694.9C804.6 693.2 802 686.3 802 679C802 669.4 804.4 660.1 809.4 649.4C813 641.8 815.4 638.4 820.8 633C824.5 629.3 828.7 626 830.1 625.7C831.4 625.5 832.9 625.2 833.3 625.1C833.7 625.1 835.5 625.6 837.3 626.3Z" fill="#511972"/>
<path d="M839.4 564.9C836.2 567 832.5 569.8 831.3 571.1C827.4 575.4 824.7 583 824.6 589.8C824.5 595.4 824.8 596.4 826.9 598.1C828.4 599.4 830.5 600 832.4 599.8C835.3 599.5 835.6 599.1 836.3 594.5C838.3 582.7 843.6 574.6 851 571.6C855 570 855.1 569.9 854.4 566.2C854 564.2 853.2 562.2 852.6 561.8C850 560 845.1 561.1 839.4 564.9Z" fill="#511972"/>
<path d="M460 576.2C457.2 579.2 453.8 586.6 453.8 589.6C453.8 593 456.5 595.8 462.5 598.6C470.8 602.5 476.1 601.5 478.6 595.5C480.2 591.5 480.4 585.7 479 583C477.8 580.8 466.2 574 463.7 574C462.8 574 461.2 575 460 576.2Z" fill="#511972"/>
<path d="M150.5 615.6C145.7 616.5 143 617.6 141.8 619.1C140.8 620.2 135.5 635.2 129.8 652.3C118.4 687.4 117.2 693.6 120.8 700.7C123.4 705.7 127.9 708 135 708C144.9 708 157 699.3 170.4 682.6C174.2 677.9 177.5 674.2 177.8 674.4C178 674.6 177.4 677.6 176.4 680.9C171 700.3 184.5 713.8 201 705.5C211.8 700 227.6 683.6 239.7 665.5C249.4 650.9 253 644.6 254.5 639.7C255.7 635.6 255.7 634.8 253.8 631.1C252.7 628.8 251.5 627 251.1 627C250.6 627 246.3 633 241.5 640.2C216.2 678.3 196.5 699.6 197.8 687.5C198 685.9 202.9 670.2 208.7 652.6C220 618.4 220.3 616.3 215 615C213.6 614.6 209.8 615 206.5 615.7C199.2 617.3 196.9 619.7 190.3 632.5C181.1 650.4 159.2 680.3 149.9 687.7C145.3 691.3 142 692 142 689.2C142 688.3 146.7 673 152.5 655.3C158.3 637.6 163 621.9 163 620.3C163 614.7 160.6 613.8 150.5 615.6Z" fill="#511972"/>
<path d="M437 722.6C437 724 533.4 992.9 533.8 992.6C534.3 992 524.6 944.7 519.1 921.5C506.9 869.7 492.8 821 471.3 756.7L459.7 722H448.3C442.1 722 437 722.3 437 722.6Z" fill="#511972"/>
<path d="M482.6 723.1C483.7 724.9 502.4 738.5 511.8 744.3C516.8 747.4 526.1 752.9 532.6 756.5C539.1 760.2 544.6 763.3 544.8 763.5C545.3 764 536.6 791.3 532 803.5C530 809 528 816.3 527.6 819.7C526.9 825.9 526.9 826 529.3 826C530.7 826 533.1 826.3 534.7 826.6L537.7 827.2L538.3 821.3C538.6 817.8 540.6 811.1 543.3 804.4C545.8 798.3 549.5 788.2 551.6 781.9C553.6 775.6 555.5 770.3 555.7 770.1C555.8 769.9 560.9 772.9 567 776.9C573.1 780.8 578.6 784 579.1 784C579.6 784 580 784.5 580 785.2C580 785.8 576.6 798.3 572.4 812.9C563 845.6 550.5 895 545.1 920.7L541 939.9V976.1V1012.3L551 1099.9C556.5 1148.1 561.2 1190.6 561.6 1194.3C562.3 1200.7 564 1204.7 564 1199.7C564 1194.4 567.3 1162.8 570.6 1137C578.7 1072.9 591.7 995 614 878C626.1 814.6 642.9 726.8 643.5 724.2L644 722H622.1C602.1 722 600 722.2 599.2 723.7C598.7 724.7 595 736.4 591 749.7C587 763.1 583.3 774 582.9 774C582.4 774 577 770.5 570.8 766.3C564.6 762.1 559.4 758.6 559.2 758.5C558.8 758.2 566.9 735.2 569.6 729.1C570.9 726.2 572 723.4 572 722.9C572 722.4 569.3 722 566 722C558.9 722 559.6 721.1 553 739.2L548.4 751.9L532.9 742.9C524.4 738 513.4 731.2 508.5 728L499.4 722H490.6C484.6 722 482.1 722.3 482.6 723.1Z" fill="#511972"/>
</svg>
