<svg width="59" height="58" viewBox="0 0 59 58" fill="none" xmlns="http://www.w3.org/2000/svg">
<path d="M29.513 14.1758C21.1371 14.1758 14.3811 20.7886 14.3811 28.9871C14.3811 37.1855 21.1371 43.7984 29.513 43.7984C37.8889 43.7984 44.645 37.1855 44.645 28.9871C44.645 20.7886 37.8889 14.1758 29.513 14.1758ZM29.513 38.6164C24.1003 38.6164 19.6753 34.298 19.6753 28.9871C19.6753 23.6761 24.0871 19.3578 29.513 19.3578C34.9389 19.3578 39.3508 23.6761 39.3508 28.9871C39.3508 34.298 34.9258 38.6164 29.513 38.6164ZM48.7934 13.5699C48.7934 15.4906 47.213 17.0246 45.2639 17.0246C43.3017 17.0246 41.7345 15.4777 41.7345 13.5699C41.7345 11.6621 43.3148 10.1152 45.2639 10.1152C47.213 10.1152 48.7934 11.6621 48.7934 13.5699ZM58.8155 17.0761C58.5916 12.4484 57.5117 8.34919 54.0481 4.97185C50.5976 1.59451 46.4097 0.537476 41.6818 0.305444C36.809 0.0347412 22.2039 0.0347412 17.3311 0.305444C12.6164 0.524585 8.42844 1.58162 4.96482 4.95896C1.50121 8.3363 0.434466 12.4355 0.197412 17.0633C-0.0791504 21.8328 -0.0791504 36.1285 0.197412 40.898C0.421296 45.5257 1.50121 49.625 4.96482 53.0023C8.42844 56.3797 12.6032 57.4367 17.3311 57.6687C22.2039 57.9394 36.809 57.9394 41.6818 57.6687C46.4097 57.4496 50.5976 56.3925 54.0481 53.0023C57.4985 49.625 58.5784 45.5257 58.8155 40.898C59.0921 36.1285 59.0921 21.8457 58.8155 17.0761ZM52.5204 46.0156C51.4932 48.5422 49.5046 50.4886 46.9101 51.507C43.0251 53.0152 33.8063 52.6672 29.513 52.6672C25.2197 52.6672 15.9878 53.0023 12.1159 51.507C9.53469 50.5015 7.54607 48.555 6.50567 46.0156C4.96482 42.2129 5.3204 33.1894 5.3204 28.9871C5.3204 24.7847 4.97799 15.7484 6.50567 11.9586C7.5329 9.43201 9.52152 7.48552 12.1159 6.46716C16.001 4.95896 25.2197 5.30701 29.513 5.30701C33.8063 5.30701 43.0383 4.97185 46.9101 6.46716C49.4914 7.47263 51.48 9.41912 52.5204 11.9586C54.0612 15.7613 53.7057 24.7847 53.7057 28.9871C53.7057 33.1894 54.0612 42.2257 52.5204 46.0156Z" fill="white"/>
</svg>
