<svg width="775" height="430" viewBox="0 0 775 430" fill="none" xmlns="http://www.w3.org/2000/svg">
<path d="M756.5 225.5C775.8 255.6 781.8 296.7 765.5 327.9C749.2 359 710.6 380.2 673.1 379.5C635.6 378.9 599.3 356.4 580.5 323.9C561.8 291.3 560.7 248.7 578.9 219.3C597 189.8 634.5 173.5 669.6 174.9C704.6 176.3 737.2 195.4 756.5 225.5Z" fill="#F5E8FF"/>
<path d="M260.8 29.9C272.5 47.4 276.7 71.9 267.2 89.2C257.6 106.5 234.3 116.6 213 115.4C191.7 114.3 172.4 101.9 161 83.5C149.7 65.2 146.4 41 156 24.6C165.7 8.2 188.3 -0.299999 209.2 0.700001C230.1 1.8 249.2 12.4 260.8 29.9Z" fill="#F5E8FF"/>
<path d="M142.4 302.9C156.4 326.4 157.8 358 144.5 383.8C131.1 409.6 103.1 429.6 75.6 429.2C48.2 428.9 21.4 408.2 8.80002 382.8C-3.69998 357.5 -1.89998 327.6 11.5 304.4C24.9 281.3 50 264.9 75.8 264.4C101.7 264 128.4 279.4 142.4 302.9Z" fill="#F5E8FF"/>
</svg>
