<svg width="370" height="595" viewBox="0 0 370 595" fill="none" xmlns="http://www.w3.org/2000/svg">
<path d="M223.9 426.2C242.9 459.7 240.8 504.7 220.8 538.6C200.8 572.6 162.9 595.5 126.6 594.6C90.2 593.7 55.4 569 34.3 534.4C13.2 499.8 5.69997 455.3 23.1 422.7C40.5 390.2 82.7 369.6 123.9 370.2C165 370.9 205 392.8 223.9 426.2Z" fill="#F5E8FF"/>
<path d="M363.8 23.2C370.7 35.6 372.1 50.8 365.9 61.7C359.6 72.6 345.8 79.3 332.6 78.9C319.4 78.5 306.9 71.1 299.5 59.6C292.1 48 289.8 32.2 296.1 20.2C302.4 8.19998 317.2 -2.53785e-05 330.8 0.599975C344.5 1.29997 356.9 10.9 363.8 23.2Z" fill="#F5E8FF"/>
<path d="M88.7 126.7C96.3 140.6 96.7 158.1 89.2 173.5C81.7 188.9 66.4 202.2 49.5 203C32.7 203.9 14.4 192.3 6.1 176.5C-2.2 160.6 -0.4 140.5 8.8 125.8C17.9 111.1 34.5 101.8 50.2 102.2C66 102.7 81 112.9 88.7 126.7Z" fill="#F5E8FF"/>
</svg>
