<svg width="387" height="645" viewBox="0 0 387 645" fill="none" xmlns="http://www.w3.org/2000/svg">
<path d="M349.8 429.6C368.4 449 376.4 477.2 381.7 506C387 534.9 389.7 564.4 377.9 586.1C366 607.9 339.7 621.7 311.8 632.1C284 642.4 254.7 649.1 231.5 640.2C208.3 631.2 191.3 606.6 178.9 581.2C166.6 555.9 158.9 529.7 162.5 504.8C166.1 480 180.8 456.4 201.1 437.2C221.4 418 247.2 403.3 274.7 401.3C302.1 399.3 331.3 410.1 349.8 429.6Z" fill="#F5E8FF"/>
<path d="M339.3 23.9C354.7 36.7 367.3 52.7 370.9 70.7C374.4 88.6 368.8 108.5 358.3 124.6C347.8 140.6 332.5 152.7 314.9 159.3C297.3 165.9 277.6 166.9 258.3 161.9C239.1 156.9 220.4 145.9 208.6 129.1C196.8 112.3 192 89.8 196.5 69.6C200.9 49.4 214.6 31.6 231.4 19C248.2 6.50001 268.1 -0.899986 287 0.300014C306 1.40001 324 11.1 339.3 23.9Z" fill="#F5E8FF"/>
<path d="M91.6 262.3C101.7 268.9 108.8 281.1 110.6 293.8C112.4 306.5 108.8 319.7 102.3 331.5C95.8 343.3 86.3 353.6 74.6 357.8C63 362 49.2 360 36.8 355.1C24.5 350.1 13.7 342.1 7.40001 331.4C1.10001 320.6 -0.799986 307.2 2.00001 295.2C4.80001 283.2 12.3 272.6 21.9 265.9C31.5 259.2 43.2 256.4 55.7 255.6C68.2 254.7 81.4 255.7 91.6 262.3Z" fill="#F5E8FF"/>
</svg>
