<svg width="698" height="295" viewBox="0 0 698 295" fill="none" xmlns="http://www.w3.org/2000/svg">
<path d="M664.3 41.1C685.6 65 700.8 96.6 696.4 126.9C692.1 157.3 668 186.3 636.8 202C605.5 217.8 567 220.2 535.4 205.9C503.9 191.6 479.3 160.5 474.4 128.1C469.5 95.6 484.3 61.9 506.5 37.8C528.7 13.8 558.4 -0.499999 586.9 0.300001C615.5 1.2 642.9 17.3 664.3 41.1Z" fill="#F5E8FF"/>
<path d="M366 234.4C373.9 243 378.6 255.4 376.5 266.9C374.4 278.4 365.5 289 354.8 293C344.2 296.9 331.8 294.2 320.1 289C308.5 283.8 297.7 276 295.8 266.5C293.8 257 300.8 245.8 309 237.2C317.2 228.6 326.6 222.6 336.8 221.9C347 221.2 358.1 225.9 366 234.4Z" fill="#F5E8FF"/>
<path d="M113.1 55.9C122.7 69.8 122.8 89.5 117.8 106.8C112.9 124.1 102.9 139 87.8 147.9C72.8 156.9 52.8 159.9 35.4 153.2C17.9 146.5 3.10001 130 0.500006 112.5C-2.09999 95 7.5 76.4 20.3 61.8C33.1 47.3 49.1 36.7 66.6 35.4C84.2 34.1 103.4 42.1 113.1 55.9Z" fill="#F5E8FF"/>
</svg>
